<?xml version="1.0" standalone="no"?>
<!DOCTYPE svg PUBLIC "-//W3C//DTD SVG 20010904//EN"
 "http://www.w3.org/TR/2001/REC-SVG-20010904/DTD/svg10.dtd">
<svg version="1.0" xmlns="http://www.w3.org/2000/svg"
 width="500.000000pt" height="500.000000pt" viewBox="0 0 500.000000 500.000000"
 preserveAspectRatio="xMidYMid meet">
<metadata>
Created by potrace 1.14, written by Peter Selinger 2001-2017
</metadata>
<g transform="translate(0.000000,500.000000) scale(0.100000,-0.100000)"
fill="#000000" stroke="none">
<path d="M2442 4473 c-4 -10 -10 -67 -11 -128 -2 -69 -7 -112 -14 -117 -6 -4
-13 -6 -14 -4 -1 1 -5 42 -8 91 -4 49 -8 92 -10 95 -5 9 -172 6 -181 -2 -3 -4
-7 -31 -8 -60 l-1 -53 -47 -7 c-54 -7 -148 -36 -162 -49 -14 -13 0 -11 64 6
30 8 55 13 56 12 13 -18 24 -52 24 -76 0 -28 -3 -31 -40 -37 -24 -4 -47 -15
-55 -27 -17 -24 -14 -27 -55 41 -21 34 -29 56 -23 60 7 4 2 13 -11 23 -20 16
-25 15 -78 -10 -31 -15 -66 -26 -77 -24 -11 1 -27 -4 -35 -12 -21 -21 -22 -20
-51 29 -31 53 -27 53 -139 -21 -45 -29 -87 -53 -94 -53 -10 0 -4 -18 18 -57
30 -53 31 -57 14 -70 -15 -11 -19 -10 -31 7 -8 11 -19 20 -24 20 -17 0 -23
-32 -8 -41 11 -8 9 -13 -11 -27 -13 -9 -39 -29 -56 -44 -37 -33 -50 -34 -84
-8 -21 16 -27 17 -40 5 -94 -86 -140 -131 -140 -137 0 -4 27 -35 60 -69 67
-69 78 -102 33 -97 -20 2 -29 9 -31 25 -4 25 -49 73 -69 73 -16 0 -22 -5 -79
-75 -45 -54 -115 -176 -154 -268 l-25 -57 -40 5 -40 6 25 -20 c14 -11 28 -21
32 -21 9 0 -1 -55 -17 -97 -13 -30 -15 -31 -57 -26 -39 6 -42 5 -29 -10 7 -10
23 -17 35 -17 12 0 26 -4 32 -9 5 -5 23 -12 39 -14 39 -7 132 -32 168 -46 15
-6 39 -13 52 -16 14 -3 36 -7 49 -10 13 -3 82 -19 152 -35 71 -17 139 -33 152
-35 13 -3 20 -10 16 -16 -8 -14 -74 -7 -254 26 -93 18 -136 22 -140 14 -5 -7
-19 -8 -46 0 -21 5 -52 12 -69 15 -16 3 -69 14 -118 24 -97 21 -143 23 -140 6
1 -7 -2 -26 -7 -43 -5 -17 -12 -55 -15 -84 -4 -28 -8 -54 -10 -57 -2 -3 -6
-34 -10 -70 -3 -35 -8 -67 -10 -70 -2 -3 -7 -47 -10 -98 -7 -85 -6 -92 11 -94
11 0 28 -2 39 -3 11 -1 32 -3 48 -4 37 -1 35 -28 -3 -36 -53 -12 -21 -25 60
-25 72 0 78 -2 73 -19 -3 -10 -14 -23 -26 -29 -20 -9 -18 -10 21 -22 23 -7 42
-19 42 -26 0 -21 -6 -23 -124 -40 -27 -4 -43 -10 -36 -14 13 -8 48 -7 98 4 24
6 32 4 32 -6 0 -17 56 -42 97 -43 17 0 35 -3 39 -8 4 -4 -2 -7 -13 -7 -19 0
-251 -58 -265 -66 -15 -9 80 -295 102 -309 10 -6 79 20 222 84 26 11 50 21 53
21 4 0 62 25 240 105 73 33 105 43 105 34 0 -5 -71 -44 -157 -85 -339 -161
-433 -209 -433 -219 1 -27 166 -298 193 -317 6 -3 16 -4 23 -1 14 5 54 -34 54
-53 0 -7 -8 -17 -18 -23 -13 -7 -14 -13 -5 -22 9 -9 17 -6 35 13 13 13 61 53
108 88 47 35 94 72 105 81 11 10 74 62 140 116 66 54 126 103 133 110 28 27
101 73 116 73 30 0 16 -28 -31 -63 -27 -19 -80 -59 -119 -88 -38 -30 -81 -62
-95 -72 -170 -121 -282 -208 -317 -243 -43 -45 -54 -68 -27 -58 8 4 15 10 15
15 0 21 27 6 54 -31 34 -46 197 -206 240 -237 l30 -20 46 51 c26 28 71 80 101
116 29 36 62 74 72 85 9 11 43 53 75 95 104 139 123 159 138 153 11 -4 6 -16
-23 -52 -20 -25 -40 -48 -43 -51 -5 -5 -41 -49 -169 -208 l-83 -103 48 -44
c27 -25 52 -45 56 -45 4 0 26 -13 50 -29 69 -46 293 -161 314 -161 11 0 24 -4
30 -9 13 -13 234 -49 346 -57 51 -4 99 -11 105 -16 16 -13 182 -3 293 16 47 9
101 18 120 21 19 4 44 11 55 16 11 5 61 20 110 34 96 27 320 132 349 163 12
14 14 25 8 43 -6 14 -6 34 0 49 l9 24 27 -34 c15 -18 32 -41 38 -49 10 -13 20
-8 70 32 109 89 158 132 218 189 57 56 61 57 83 43 36 -24 27 -2 -14 37 -21
19 -50 48 -64 64 -14 16 -41 42 -60 58 -212 182 -309 272 -309 287 0 19 26 7
65 -29 22 -21 85 -76 140 -123 55 -48 116 -102 136 -120 19 -19 56 -51 81 -71
l46 -38 109 162 c104 155 159 226 168 216 3 -3 6 -16 7 -31 3 -34 14 -26 22
18 12 61 35 107 52 101 9 -3 12 -2 9 4 -9 14 -86 51 -162 80 -62 22 -81 40
-44 40 10 0 67 -16 127 -35 59 -19 114 -35 122 -35 28 0 4 25 -34 36 -44 13
-44 12 -14 109 12 39 33 114 48 168 l26 97 -21 15 c-19 13 -20 19 -11 60 6 26
7 49 5 52 -3 3 -86 7 -184 10 -214 5 -226 6 -231 21 -3 9 66 12 260 14 168 2
262 7 261 13 0 6 -4 59 -8 118 -4 60 -8 118 -10 130 -2 12 -6 43 -9 69 -9 74
-26 181 -32 190 -3 5 -8 7 -12 4 -4 -2 -45 -7 -92 -10 -47 -4 -94 -8 -105 -10
-22 -3 -128 37 -132 51 -2 6 45 22 104 37 153 39 165 44 157 70 -10 33 -56
135 -92 206 -45 88 -184 310 -195 310 -4 0 -19 -11 -32 -25 -26 -25 -32 -50
-15 -60 14 -8 -6 -45 -25 -45 -7 0 -15 -5 -17 -11 -3 -9 -14 -9 -41 0 -36 12
-37 14 -20 30 10 9 29 29 42 43 l24 27 -47 68 c-25 37 -68 92 -94 121 l-47 53
-75 -45 c-41 -25 -76 -42 -78 -37 -5 14 37 113 69 162 16 25 29 48 29 52 0 9
-213 167 -225 167 -6 0 -21 -21 -34 -47 -12 -27 -29 -58 -37 -71 l-15 -22 -54
41 c-56 42 -63 53 -45 64 6 4 8 10 5 15 -6 10 -136 55 -149 52 -5 -2 -16 4
-25 12 -18 16 -248 77 -295 78 -17 1 -32 -4 -34 -10 -2 -7 -10 -12 -17 -12
-11 0 -13 18 -11 80 1 48 -2 84 -8 89 -6 5 -70 10 -143 10 -118 2 -133 0 -141
-16z m1545 -1405 c-9 -4 -27 -9 -41 -10 -14 -1 -26 -5 -26 -8 0 -3 -16 -7 -37
-8 -20 -2 -39 -5 -43 -7 -3 -2 -12 0 -20 5 -14 9 30 24 114 39 48 9 77 3 53
-11z m-252 -47 c-8 -14 -111 -51 -141 -51 -45 0 -21 24 42 42 67 19 108 22 99
9z m-2307 -496 c18 -17 -42 -21 -286 -19 -308 3 -282 1 -282 14 0 5 44 11 98
12 154 5 463 0 470 -7z m2210 -6 c-12 -7 -24 -7 -35 0 -15 9 -12 10 17 10 29
0 32 -1 18 -10z m-2588 -120 c0 -5 -9 -9 -20 -9 -11 0 -20 4 -20 8 0 4 9 8 20
9 11 1 20 -2 20 -8z m2780 -290 c52 -18 98 -36 101 -41 3 -5 10 -9 15 -9 14 1
78 -21 89 -30 11 -11 -18 -10 -55 0 -16 5 -33 2 -47 -7 -22 -13 -23 -13 -23 9
0 21 -10 27 -89 51 -49 16 -91 35 -95 43 -7 20 -5 20 104 -16z m-1733 -565
c-7 -7 -37 7 -37 17 0 6 9 5 21 -1 11 -7 19 -14 16 -16z m1084 -78 c34 -46 60
-88 59 -93 -2 -4 -20 -9 -40 -11 -31 -3 -39 0 -45 17 -9 30 -70 79 -115 92
-34 10 -38 14 -28 27 12 13 82 50 100 51 4 1 35 -37 69 -83z"/>
</g>
</svg>
